<svg xmlns="http://www.w3.org/2000/svg" xmlns:xlink="http://www.w3.org/1999/xlink" viewBox="0 0 831.51 883.91"><defs><style>.cls-1{fill:#2d69cb;}.cls-2{fill:none;}.cls-3,.cls-4{fill:#fff;}.cls-3{stroke:#fff;stroke-miterlimit:10;stroke-width:4px;}.cls-5{fill:url(#linear-gradient);}.cls-6{fill:url(#linear-gradient-2);}</style><linearGradient id="linear-gradient" x1="337.66" y1="246.07" x2="366.52" y2="269.38" gradientTransform="translate(89.32 -25.84) rotate(4.23)" gradientUnits="userSpaceOnUse"><stop offset="0.16" stop-color="#d4d4d4"/><stop offset="0.72" stop-color="#fff"/></linearGradient><linearGradient id="linear-gradient-2" x1="478.41" y1="417.4" x2="517.52" y2="419.64" gradientTransform="translate(89.32 -25.84) rotate(4.23)" gradientUnits="userSpaceOnUse"><stop offset="0.21" stop-color="#fff"/><stop offset="0.46" stop-color="#f6f6f6"/><stop offset="0.88" stop-color="#dcdcdc"/><stop offset="1" stop-color="#d4d4d4"/></linearGradient></defs><g id="Layer_2" data-name="Layer 2"><g id="Layer_3" data-name="Layer 3"><path class="cls-1" d="M433.32,112.61l-.32,0v0l-.22-.42.35.12Z"/><line class="cls-2" x1="433.12" y1="112.23" x2="433.12" y2="112.23"/><path class="cls-2" d="M346.07,108.06c.85-.22,1.74-.42,2.65-.62l.77-.17"/><path class="cls-3" d="M691,683.33c-57.18,98-159.07,153.31-289.33,153.31-81.48,0-151.3-19.92-206.79-57.24a290.84,290.84,0,0,1-50.6-43C83.6,671.74,50,577.87,50,460.75,50,230.92,189.25,83.68,401.68,83.68c122.81,0,220.63,49.23,280.25,137l23.61-48.91C628.13,75.6,511,38.4,401.68,38.4,198.83,38.4,2,169.73,2,460.75,2,759.61,198.83,881.91,401.68,881.91c112.1,0,233.91-39.14,310.62-142.53Z"/><path class="cls-1" d="M487.44,6.82,487,6.75l0,0-.28-.54c.15,0,.3.11.45.15Z"/><line class="cls-2" x1="487.18" y1="6.32" x2="487.18" y2="6.32"/><path class="cls-2" d="M376.08,1c1.09-.27,2.23-.53,3.38-.79.32-.06.64-.15,1-.21"/><path class="cls-4" d="M579.26,567.65a289.28,289.28,0,0,1-164,60.76c-19.19.88-79.5,2.81-141.9-29.35a255.18,255.18,0,0,1-29.11-17.63c-.81-.57-1.63-1.13-2.4-1.74-6.14-5.42-12.55-11.54-19-18.32l31.42-76.13c15.09,22.13,28.74,34.69,35.82,39.48q5.26,3.49,10.44,6.51c36.57,21.3,71.23,24.82,87.21,26.23,58.29,5.19,102.72-13.94,124.73-23.82,24.65-11.06,46.91-26.77,49.6-28.7l.26-.18c4.81-3.51,9.56-7.18,14.24-11.06Q577.9,530.71,579.26,567.65Z"/><polygon class="cls-5" points="493.52 302.05 493.44 302.16 448.65 374.67 448.62 374.72 447.94 372.9 447.39 371.45 432.65 332.12 406.75 265.1 406.2 263.7 444.11 192.18 444.6 191.24 444.61 191.24 446.07 188.47 446.09 188.45 446.22 188.2 446.34 188.53 448.33 193.22 470.97 246.5 493.52 302.05"/><polygon class="cls-6" points="515.67 541.64 447.38 371.49 493.09 301.7 493.12 301.46 509.63 339.08 576.58 493.48 515.67 541.64"/><path class="cls-4" d="M447.44,192.58l-.14.27-39.36,69.71-.19.3-1,2.37-106.27,266-27.14,67.83L181.06,811.13l-.52.94c-17.17-16.34-32.22-37.33-43.35-59.85l85.65-190.85,31.42-76.13L377.36,187c23.14-2.17,45.69.17,66.8,5.16h0l.48-1c.92.34,1.75.67,2.63,1Z"/><line class="cls-2" x1="705.54" y1="171.8" x2="681.93" y2="220.71"/><line class="cls-2" x1="712.3" y1="739.38" x2="691.01" y2="683.33"/><path class="cls-1" d="M819.78,473.85h0l0,0h0Z"/><line class="cls-2" x1="819.76" y1="473.82" x2="819.76" y2="473.82"/><path class="cls-2" d="M813.79,473.54l.18-.05h0"/><line class="cls-2" x1="831.51" y1="482.72" x2="830.24" y2="485.35"/></g></g></svg>